<?xml version="1.0" encoding="UTF-8" standalone="no"?>
<!-- Created with Inkscape (http://www.inkscape.org/) -->

<svg
   width="100mm"
   height="100mm"
   viewBox="0 0 100 100"
   version="1.1"
   id="svg5"
   inkscape:version="1.2.2 (732a01da63, 2022-12-09)"
   sodipodi:docname="SHAKKI_MUSTA_KUNINGATAR.svg"
   xmlns:inkscape="http://www.inkscape.org/namespaces/inkscape"
   xmlns:sodipodi="http://sodipodi.sourceforge.net/DTD/sodipodi-0.dtd"
   xmlns="http://www.w3.org/2000/svg"
   xmlns:svg="http://www.w3.org/2000/svg">
  <sodipodi:namedview
     id="namedview7"
     pagecolor="#ffffff"
     bordercolor="#000000"
     borderopacity="0.25"
     inkscape:showpageshadow="2"
     inkscape:pageopacity="0.0"
     inkscape:pagecheckerboard="0"
     inkscape:deskcolor="#d1d1d1"
     inkscape:document-units="mm"
     showgrid="true"
     inkscape:zoom="0.125"
     inkscape:cx="92"
     inkscape:cy="904"
     inkscape:window-width="1920"
     inkscape:window-height="1027"
     inkscape:window-x="-8"
     inkscape:window-y="-8"
     inkscape:window-maximized="1"
     inkscape:current-layer="layer1" />
  <defs
     id="defs2" />
  <g
     inkscape:label="Taso 1"
     inkscape:groupmode="layer"
     id="layer1">
    <rect
       style="fill:#000000;fill-rule:evenodd;stroke-width:0.122174;stroke-linejoin:round;stroke-dasharray:0.122174, 0.122174;paint-order:markers fill stroke"
       id="rect758-3-35-69-3-3"
       width="43.186058"
       height="7.9303288"
       x="28.705374"
       y="64.559189"
       ry="2.1166666" />
    <rect
       style="fill:#000000;fill-rule:evenodd;stroke-width:0.137476;stroke-linejoin:round;stroke-dasharray:0.137476, 0.137476;paint-order:markers fill stroke"
       id="rect758-3-35-69-3-7-8"
       width="43.186058"
       height="10.041223"
       x="28.705374"
       y="56.62886"
       ry="2.6800804" />
    <rect
       style="fill:#000000;fill-rule:evenodd;stroke-width:0.0829045;stroke-linejoin:round;stroke-dasharray:0.0829045, 0.0829045;paint-order:markers fill stroke"
       id="rect758-3-35-69-3-0-0-6"
       width="26.868877"
       height="5.8692126"
       x="-68.72303"
       y="71.895302"
       ry="1.5665386"
       transform="matrix(0.08591014,-0.99630289,0.99861088,0.05269068,0,0)" />
    <rect
       style="fill:#000000;fill-rule:evenodd;stroke-width:0.0827473;stroke-linejoin:round;stroke-dasharray:0.0827473, 0.0827473;paint-order:markers fill stroke"
       id="rect758-3-35-69-3-0-0-8-6"
       width="26.767366"
       height="5.8691506"
       x="-73.913277"
       y="-28.231398"
       ry="1.5665221"
       transform="matrix(-0.08623595,-0.99627474,-0.99862141,0.05249069,0,0)" />
    <rect
       style="fill:#000000;fill-rule:evenodd;stroke-width:0.102757;stroke-linejoin:round;stroke-dasharray:0.102757, 0.102757;paint-order:markers fill stroke"
       id="rect758-3-35-69-3-0-0-2-9"
       width="41.232822"
       height="5.8756227"
       x="-69.367149"
       y="47.803459"
       ry="1.5682496"
       transform="matrix(0.01488707,-0.99988918,0.99969425,0.02472677,0,0)" />
    <rect
       style="fill:#000000;fill-rule:evenodd;stroke-width:0.10516;stroke-linejoin:round;stroke-dasharray:0.10516, 0.10516;paint-order:markers fill stroke"
       id="rect758-3-35-69-3-0-0-2-1-3"
       width="43.182472"
       height="5.8757968"
       x="-60.395168"
       y="65.408348"
       ry="1.568296"
       transform="matrix(0.17541573,-0.98449445,0.98237794,0.18690528,0,0)" />
    <rect
       style="fill:#000000;fill-rule:evenodd;stroke-width:0.10516;stroke-linejoin:round;stroke-dasharray:0.10516, 0.10516;paint-order:markers fill stroke"
       id="rect758-3-35-69-3-0-0-2-1-7-7"
       width="43.182472"
       height="5.8757968"
       x="-79.073898"
       y="-32.979031"
       ry="1.568296"
       transform="matrix(-0.17541573,-0.98449445,-0.98237794,0.18690528,0,0)" />
    <path
       style="fill:#000000;fill-opacity:1;fill-rule:evenodd;stroke-width:0.361214;stroke-linejoin:round;stroke-dasharray:0.361214, 0.361214;paint-order:markers fill stroke"
       id="path3245-83"
       sodipodi:type="arc"
       sodipodi:cx="36.064156"
       sodipodi:cy="32.999298"
       sodipodi:rx="3.9838138"
       sodipodi:ry="4.5289459"
       sodipodi:start="2.9651207"
       sodipodi:end="2.8586974"
       sodipodi:arc-type="arc"
       d="m 32.142214,33.794388 a 3.9838138,4.5289459 0 0 1 3.118467,-5.230968 3.9838138,4.5289459 0 0 1 4.682667,3.404775 3.9838138,4.5289459 0 0 1 -2.869324,5.412121 3.9838138,4.5289459 0 0 1 -4.835331,-3.116822"
       sodipodi:open="true" />
    <path
       style="fill:#000000;fill-opacity:1;fill-rule:evenodd;stroke-width:0.361214;stroke-linejoin:round;stroke-dasharray:0.361214, 0.361214;paint-order:markers fill stroke"
       id="path3245-8-9"
       sodipodi:type="arc"
       sodipodi:cx="49.999992"
       sodipodi:cy="29.351484"
       sodipodi:rx="3.9838138"
       sodipodi:ry="4.5289459"
       sodipodi:start="2.9651207"
       sodipodi:end="2.8586974"
       sodipodi:arc-type="arc"
       d="m 46.07805,30.146574 a 3.9838138,4.5289459 0 0 1 3.118468,-5.230968 3.9838138,4.5289459 0 0 1 4.682667,3.404776 3.9838138,4.5289459 0 0 1 -2.869324,5.41212 3.9838138,4.5289459 0 0 1 -4.835331,-3.116821"
       sodipodi:open="true" />
    <path
       style="fill:#000000;fill-opacity:1;fill-rule:evenodd;stroke-width:0.361214;stroke-linejoin:round;stroke-dasharray:0.361214, 0.361214;paint-order:markers fill stroke"
       id="path3245-8-5-3"
       sodipodi:type="arc"
       sodipodi:cx="63.935814"
       sodipodi:cy="32.999298"
       sodipodi:rx="3.9838138"
       sodipodi:ry="4.5289459"
       sodipodi:start="2.9651207"
       sodipodi:end="2.8586974"
       sodipodi:arc-type="arc"
       d="m 60.013872,33.794388 a 3.9838138,4.5289459 0 0 1 3.118467,-5.230968 3.9838138,4.5289459 0 0 1 4.682668,3.404775 3.9838138,4.5289459 0 0 1 -2.869324,5.412121 3.9838138,4.5289459 0 0 1 -4.835331,-3.116822"
       sodipodi:open="true" />
  </g>
</svg>
