<?xml version="1.0" encoding="UTF-8" standalone="no"?>
<!-- Created with Inkscape (http://www.inkscape.org/) -->

<svg
   width="100mm"
   height="100mm"
   viewBox="0 0 100 100"
   version="1.1"
   id="svg5"
   inkscape:version="1.2.2 (732a01da63, 2022-12-09)"
   sodipodi:docname="SHAKKI_VALKONE_KUNINGAS.svg"
   xmlns:inkscape="http://www.inkscape.org/namespaces/inkscape"
   xmlns:sodipodi="http://sodipodi.sourceforge.net/DTD/sodipodi-0.dtd"
   xmlns="http://www.w3.org/2000/svg"
   xmlns:svg="http://www.w3.org/2000/svg">
  <sodipodi:namedview
     id="namedview7"
     pagecolor="#ffffff"
     bordercolor="#000000"
     borderopacity="0.25"
     inkscape:showpageshadow="2"
     inkscape:pageopacity="0.0"
     inkscape:pagecheckerboard="0"
     inkscape:deskcolor="#d1d1d1"
     inkscape:document-units="mm"
     showgrid="true"
     inkscape:zoom="0.1767767"
     inkscape:cx="625.08239"
     inkscape:cy="644.88138"
     inkscape:window-width="1920"
     inkscape:window-height="1027"
     inkscape:window-x="-8"
     inkscape:window-y="-8"
     inkscape:window-maximized="1"
     inkscape:current-layer="layer1" />
  <defs
     id="defs2" />
  <g
     inkscape:label="Taso 1"
     inkscape:groupmode="layer"
     id="layer1">
    <rect
       style="fill:#ffffff;fill-rule:evenodd;stroke-width:0.122174;stroke-linejoin:round;stroke-dasharray:0.122174, 0.122174;paint-order:markers fill stroke"
       id="rect758-3-35-69-3-4"
       width="43.186058"
       height="7.9303288"
       x="28.307755"
       y="61.970383"
       ry="2.1166666" />
    <path
       style="opacity:1;fill:#ffffff;fill-opacity:1;fill-rule:evenodd;stroke-width:0.138105;stroke-linejoin:round;stroke-dasharray:0.138105, 0.138105;paint-order:markers fill stroke"
       id="path4128"
       sodipodi:type="arc"
       sodipodi:cx="38.895142"
       sodipodi:cy="54.040054"
       sodipodi:rx="12.271208"
       sodipodi:ry="11.338267"
       sodipodi:start="2.9651207"
       sodipodi:end="2.8586974"
       sodipodi:open="true"
       sodipodi:arc-type="arc"
       d="M 26.814516,56.030571 A 12.271208,11.338267 0 0 1 36.420225,42.934783 12.271208,11.338267 0 0 1 50.844089,51.458677 12.271208,11.338267 0 0 1 42.005806,65.007983 12.271208,11.338267 0 0 1 27.111698,57.204984" />
    <path
       style="fill:#ffffff;fill-opacity:1;fill-rule:evenodd;stroke-width:0.12178;stroke-linejoin:round;stroke-dasharray:0.12178, 0.12178;paint-order:markers fill stroke"
       id="path4128-0"
       sodipodi:type="arc"
       sodipodi:cx="50"
       sodipodi:cy="50"
       sodipodi:rx="7.4602356"
       sodipodi:ry="14.50161"
       sodipodi:start="2.9651207"
       sodipodi:end="2.8586974"
       sodipodi:open="true"
       sodipodi:arc-type="arc"
       d="m 42.655628,52.545865 a 7.4602356,14.50161 0 0 1 5.839756,-16.749474 7.4602356,14.50161 0 0 1 8.768934,10.902036 7.4602356,14.50161 0 0 1 -5.373201,17.32952 7.4602356,14.50161 0 0 1 -9.054818,-9.980011" />
    <path
       style="fill:#ffffff;fill-opacity:1;fill-rule:evenodd;stroke-width:0.0451502;stroke-linejoin:round;stroke-dasharray:0.0451502, 0.0451502;paint-order:markers fill stroke"
       id="path4128-0-4"
       sodipodi:type="arc"
       sodipodi:cx="49.900787"
       sodipodi:cy="32.320618"
       sodipodi:rx="2.6281593"
       sodipodi:ry="5.6582484"
       sodipodi:start="2.9651207"
       sodipodi:end="2.8586974"
       sodipodi:open="true"
       sodipodi:arc-type="arc"
       d="m 47.313446,33.313965 a 2.6281593,5.6582484 0 0 1 2.057282,-6.535321 2.6281593,5.6582484 0 0 1 3.089199,4.253763 2.6281593,5.6582484 0 0 1 -1.89292,6.761645 2.6281593,5.6582484 0 0 1 -3.189913,-3.894008" />
    <path
       style="fill:#ffffff;fill-opacity:1;fill-rule:evenodd;stroke-width:0.0374725;stroke-linejoin:round;stroke-dasharray:0.0374725, 0.0374725;paint-order:markers fill stroke"
       id="path4128-0-4-9"
       sodipodi:type="arc"
       sodipodi:cx="30.966753"
       sodipodi:cy="-50.758892"
       sodipodi:rx="1.8105025"
       sodipodi:ry="5.657712"
       sodipodi:start="2.9651207"
       sodipodi:end="2.8586974"
       sodipodi:open="true"
       sodipodi:arc-type="arc"
       d="m 29.184369,-49.765639 a 1.8105025,5.657712 0 0 1 1.417233,-6.534702 1.8105025,5.657712 0 0 1 2.128107,4.253361 1.8105025,5.657712 0 0 1 -1.304006,6.761003 1.8105025,5.657712 0 0 1 -2.197487,-3.893638"
       transform="matrix(-0.02757054,0.99961986,-0.99991442,-0.01308261,0,0)" />
    <path
       style="fill:#ffffff;fill-opacity:1;fill-rule:evenodd;stroke-width:0.138105;stroke-linejoin:round;stroke-dasharray:0.138105, 0.138105;paint-order:markers fill stroke"
       id="path4128-6"
       sodipodi:type="arc"
       sodipodi:cx="61.100739"
       sodipodi:cy="54.040054"
       sodipodi:rx="12.271208"
       sodipodi:ry="11.338267"
       sodipodi:start="2.9651207"
       sodipodi:end="2.8586974"
       sodipodi:open="true"
       sodipodi:arc-type="arc"
       d="m 49.020112,56.030571 a 12.271208,11.338267 0 0 1 9.60571,-13.095788 12.271208,11.338267 0 0 1 14.423864,8.523894 12.271208,11.338267 0 0 1 -8.838283,13.549306 12.271208,11.338267 0 0 1 -14.894108,-7.802999" />
  </g>
</svg>
